<?xml version="1.0" encoding="UTF-8" standalone="no"?><svg xmlns="http://www.w3.org/2000/svg" xmlns:xlink="http://www.w3.org/1999/xlink" contentScriptType="application/ecmascript" contentStyleType="text/css" height="391px" preserveAspectRatio="none" style="width:522px;height:391px;" version="1.1" viewBox="0 0 522 391" width="522px" zoomAndPan="magnify"><defs><filter height="300%" id="f1eagbhyc49ciz" width="300%" x="-1" y="-1"><feGaussianBlur result="blurOut" stdDeviation="2.0"/><feColorMatrix in="blurOut" result="blurOut2" type="matrix" values="0 0 0 0 0 0 0 0 0 0 0 0 0 0 0 0 0 0 .4 0"/><feOffset dx="4.0" dy="4.0" in="blurOut2" result="blurOut3"/><feBlend in="SourceGraphic" in2="blurOut3" mode="normal"/></filter></defs><g><!--class Map--><rect fill="#FEFECE" filter="url(#f1eagbhyc49ciz)" height="48" id="Map" style="stroke: #A80036; stroke-width: 1.5;" width="58" x="160" y="8"/><ellipse cx="175" cy="24" fill="#B4A7E5" rx="11" ry="11" style="stroke: #A80036; stroke-width: 1.0;"/><path d="M170.9219,19.7656 L170.9219,17.6094 L178.3125,17.6094 L178.3125,19.7656 L175.8438,19.7656 L175.8438,27.8438 L178.3125,27.8438 L178.3125,30 L170.9219,30 L170.9219,27.8438 L173.3906,27.8438 L173.3906,19.7656 L170.9219,19.7656 Z "/><text fill="#000000" font-family="sans-serif" font-size="12" font-style="italic" lengthAdjust="spacingAndGlyphs" textLength="26" x="189" y="28.1543">Map</text><line style="stroke: #A80036; stroke-width: 1.5;" x1="161" x2="217" y1="40" y2="40"/><line style="stroke: #A80036; stroke-width: 1.5;" x1="161" x2="217" y1="48" y2="48"/><!--class HashMap--><rect fill="#FEFECE" filter="url(#f1eagbhyc49ciz)" height="48" id="HashMap" style="stroke: #A80036; stroke-width: 1.5;" width="90" x="62" y="224"/><ellipse cx="77" cy="240" fill="#ADD1B2" rx="11" ry="11" style="stroke: #A80036; stroke-width: 1.0;"/><path d="M79.9688,245.6406 Q79.3906,245.9375 78.75,246.0859 Q78.1094,246.2344 77.4063,246.2344 Q74.9063,246.2344 73.5859,244.5859 Q72.2656,242.9375 72.2656,239.8125 Q72.2656,236.6875 73.5859,235.0313 Q74.9063,233.375 77.4063,233.375 Q78.1094,233.375 78.7578,233.5313 Q79.4063,233.6875 79.9688,233.9844 L79.9688,236.7031 Q79.3438,236.125 78.75,235.8516 Q78.1563,235.5781 77.5313,235.5781 Q76.1875,235.5781 75.5,236.6484 Q74.8125,237.7188 74.8125,239.8125 Q74.8125,241.9063 75.5,242.9766 Q76.1875,244.0469 77.5313,244.0469 Q78.1563,244.0469 78.75,243.7734 Q79.3438,243.5 79.9688,242.9219 L79.9688,245.6406 Z "/><text fill="#000000" font-family="sans-serif" font-size="12" lengthAdjust="spacingAndGlyphs" textLength="58" x="91" y="244.1543">HashMap</text><line style="stroke: #A80036; stroke-width: 1.5;" x1="63" x2="151" y1="256" y2="256"/><line style="stroke: #A80036; stroke-width: 1.5;" x1="63" x2="151" y1="264" y2="264"/><!--class AbstractMap--><rect fill="#FEFECE" filter="url(#f1eagbhyc49ciz)" height="48" id="AbstractMap" style="stroke: #A80036; stroke-width: 1.5;" width="111" x="133.5" y="116"/><ellipse cx="148.5" cy="132" fill="#A9DCDF" rx="11" ry="11" style="stroke: #A80036; stroke-width: 1.0;"/><path d="M148.6094,127.3438 L147.4531,132.4219 L149.7813,132.4219 L148.6094,127.3438 Z M147.125,125.1094 L150.1094,125.1094 L153.4688,137.5 L151.0156,137.5 L150.25,134.4375 L146.9688,134.4375 L146.2188,137.5 L143.7813,137.5 L147.125,125.1094 Z "/><text fill="#000000" font-family="sans-serif" font-size="12" font-style="italic" lengthAdjust="spacingAndGlyphs" textLength="79" x="162.5" y="136.1543">AbstractMap</text><line style="stroke: #A80036; stroke-width: 1.5;" x1="134.5" x2="243.5" y1="148" y2="148"/><line style="stroke: #A80036; stroke-width: 1.5;" x1="134.5" x2="243.5" y1="156" y2="156"/><!--class Hashtable--><rect fill="#FEFECE" filter="url(#f1eagbhyc49ciz)" height="48" id="Hashtable" style="stroke: #A80036; stroke-width: 1.5;" width="96" x="415" y="116"/><ellipse cx="430" cy="132" fill="#ADD1B2" rx="11" ry="11" style="stroke: #A80036; stroke-width: 1.0;"/><path d="M432.9688,137.6406 Q432.3906,137.9375 431.75,138.0859 Q431.1094,138.2344 430.4063,138.2344 Q427.9063,138.2344 426.5859,136.5859 Q425.2656,134.9375 425.2656,131.8125 Q425.2656,128.6875 426.5859,127.0313 Q427.9063,125.375 430.4063,125.375 Q431.1094,125.375 431.7578,125.5313 Q432.4063,125.6875 432.9688,125.9844 L432.9688,128.7031 Q432.3438,128.125 431.75,127.8516 Q431.1563,127.5781 430.5313,127.5781 Q429.1875,127.5781 428.5,128.6484 Q427.8125,129.7188 427.8125,131.8125 Q427.8125,133.9063 428.5,134.9766 Q429.1875,136.0469 430.5313,136.0469 Q431.1563,136.0469 431.75,135.7734 Q432.3438,135.5 432.9688,134.9219 L432.9688,137.6406 Z "/><text fill="#000000" font-family="sans-serif" font-size="12" lengthAdjust="spacingAndGlyphs" textLength="64" x="444" y="136.1543">Hashtable</text><line style="stroke: #A80036; stroke-width: 1.5;" x1="416" x2="510" y1="148" y2="148"/><line style="stroke: #A80036; stroke-width: 1.5;" x1="416" x2="510" y1="156" y2="156"/><!--class Dictionary--><rect fill="#FEFECE" filter="url(#f1eagbhyc49ciz)" height="48" id="Dictionary" style="stroke: #A80036; stroke-width: 1.5;" width="94" x="416" y="8"/><ellipse cx="431" cy="24" fill="#A9DCDF" rx="11" ry="11" style="stroke: #A80036; stroke-width: 1.0;"/><path d="M431.1094,19.3438 L429.9531,24.4219 L432.2813,24.4219 L431.1094,19.3438 Z M429.625,17.1094 L432.6094,17.1094 L435.9688,29.5 L433.5156,29.5 L432.75,26.4375 L429.4688,26.4375 L428.7188,29.5 L426.2813,29.5 L429.625,17.1094 Z "/><text fill="#000000" font-family="sans-serif" font-size="12" font-style="italic" lengthAdjust="spacingAndGlyphs" textLength="62" x="445" y="28.1543">Dictionary</text><line style="stroke: #A80036; stroke-width: 1.5;" x1="417" x2="509" y1="40" y2="40"/><line style="stroke: #A80036; stroke-width: 1.5;" x1="417" x2="509" y1="48" y2="48"/><!--class SortedMap--><rect fill="#FEFECE" filter="url(#f1eagbhyc49ciz)" height="48" id="SortedMap" style="stroke: #A80036; stroke-width: 1.5;" width="100" x="280" y="116"/><ellipse cx="295" cy="132" fill="#B4A7E5" rx="11" ry="11" style="stroke: #A80036; stroke-width: 1.0;"/><path d="M290.9219,127.7656 L290.9219,125.6094 L298.3125,125.6094 L298.3125,127.7656 L295.8438,127.7656 L295.8438,135.8438 L298.3125,135.8438 L298.3125,138 L290.9219,138 L290.9219,135.8438 L293.3906,135.8438 L293.3906,127.7656 L290.9219,127.7656 Z "/><text fill="#000000" font-family="sans-serif" font-size="12" font-style="italic" lengthAdjust="spacingAndGlyphs" textLength="68" x="309" y="136.1543">SortedMap</text><line style="stroke: #A80036; stroke-width: 1.5;" x1="281" x2="379" y1="148" y2="148"/><line style="stroke: #A80036; stroke-width: 1.5;" x1="281" x2="379" y1="156" y2="156"/><!--class LinkedHashMap--><rect fill="#FEFECE" filter="url(#f1eagbhyc49ciz)" height="48" id="LinkedHashMap" style="stroke: #A80036; stroke-width: 1.5;" width="130" x="6" y="332"/><ellipse cx="21" cy="348" fill="#ADD1B2" rx="11" ry="11" style="stroke: #A80036; stroke-width: 1.0;"/><path d="M23.9688,353.6406 Q23.3906,353.9375 22.75,354.0859 Q22.1094,354.2344 21.4063,354.2344 Q18.9063,354.2344 17.5859,352.5859 Q16.2656,350.9375 16.2656,347.8125 Q16.2656,344.6875 17.5859,343.0313 Q18.9063,341.375 21.4063,341.375 Q22.1094,341.375 22.7578,341.5313 Q23.4063,341.6875 23.9688,341.9844 L23.9688,344.7031 Q23.3438,344.125 22.75,343.8516 Q22.1563,343.5781 21.5313,343.5781 Q20.1875,343.5781 19.5,344.6484 Q18.8125,345.7188 18.8125,347.8125 Q18.8125,349.9063 19.5,350.9766 Q20.1875,352.0469 21.5313,352.0469 Q22.1563,352.0469 22.75,351.7734 Q23.3438,351.5 23.9688,350.9219 L23.9688,353.6406 Z "/><text fill="#000000" font-family="sans-serif" font-size="12" lengthAdjust="spacingAndGlyphs" textLength="98" x="35" y="352.1543">LinkedHashMap</text><line style="stroke: #A80036; stroke-width: 1.5;" x1="7" x2="135" y1="364" y2="364"/><line style="stroke: #A80036; stroke-width: 1.5;" x1="7" x2="135" y1="372" y2="372"/><!--class Properties--><rect fill="#FEFECE" filter="url(#f1eagbhyc49ciz)" height="48" id="Properties" style="stroke: #A80036; stroke-width: 1.5;" width="97" x="414.5" y="224"/><ellipse cx="429.5" cy="240" fill="#ADD1B2" rx="11" ry="11" style="stroke: #A80036; stroke-width: 1.0;"/><path d="M432.4688,245.6406 Q431.8906,245.9375 431.25,246.0859 Q430.6094,246.2344 429.9063,246.2344 Q427.4063,246.2344 426.0859,244.5859 Q424.7656,242.9375 424.7656,239.8125 Q424.7656,236.6875 426.0859,235.0313 Q427.4063,233.375 429.9063,233.375 Q430.6094,233.375 431.2578,233.5313 Q431.9063,233.6875 432.4688,233.9844 L432.4688,236.7031 Q431.8438,236.125 431.25,235.8516 Q430.6563,235.5781 430.0313,235.5781 Q428.6875,235.5781 428,236.6484 Q427.3125,237.7188 427.3125,239.8125 Q427.3125,241.9063 428,242.9766 Q428.6875,244.0469 430.0313,244.0469 Q430.6563,244.0469 431.25,243.7734 Q431.8438,243.5 432.4688,242.9219 L432.4688,245.6406 Z "/><text fill="#000000" font-family="sans-serif" font-size="12" lengthAdjust="spacingAndGlyphs" textLength="65" x="443.5" y="244.1543">Properties</text><line style="stroke: #A80036; stroke-width: 1.5;" x1="415.5" x2="510.5" y1="256" y2="256"/><line style="stroke: #A80036; stroke-width: 1.5;" x1="415.5" x2="510.5" y1="264" y2="264"/><!--class TreeMap--><rect fill="#FEFECE" filter="url(#f1eagbhyc49ciz)" height="48" id="TreeMap" style="stroke: #A80036; stroke-width: 1.5;" width="86" x="198" y="332"/><ellipse cx="213" cy="348" fill="#ADD1B2" rx="11" ry="11" style="stroke: #A80036; stroke-width: 1.0;"/><path d="M215.9688,353.6406 Q215.3906,353.9375 214.75,354.0859 Q214.1094,354.2344 213.4063,354.2344 Q210.9063,354.2344 209.5859,352.5859 Q208.2656,350.9375 208.2656,347.8125 Q208.2656,344.6875 209.5859,343.0313 Q210.9063,341.375 213.4063,341.375 Q214.1094,341.375 214.7578,341.5313 Q215.4063,341.6875 215.9688,341.9844 L215.9688,344.7031 Q215.3438,344.125 214.75,343.8516 Q214.1563,343.5781 213.5313,343.5781 Q212.1875,343.5781 211.5,344.6484 Q210.8125,345.7188 210.8125,347.8125 Q210.8125,349.9063 211.5,350.9766 Q212.1875,352.0469 213.5313,352.0469 Q214.1563,352.0469 214.75,351.7734 Q215.3438,351.5 215.9688,350.9219 L215.9688,353.6406 Z "/><text fill="#000000" font-family="sans-serif" font-size="12" lengthAdjust="spacingAndGlyphs" textLength="54" x="227" y="352.1543">TreeMap</text><line style="stroke: #A80036; stroke-width: 1.5;" x1="199" x2="283" y1="364" y2="364"/><line style="stroke: #A80036; stroke-width: 1.5;" x1="199" x2="283" y1="372" y2="372"/><!--class NavigableMap--><rect fill="#FEFECE" filter="url(#f1eagbhyc49ciz)" height="48" id="NavigableMap" style="stroke: #A80036; stroke-width: 1.5;" width="119" x="260.5" y="224"/><ellipse cx="275.5" cy="240" fill="#B4A7E5" rx="11" ry="11" style="stroke: #A80036; stroke-width: 1.0;"/><path d="M271.4219,235.7656 L271.4219,233.6094 L278.8125,233.6094 L278.8125,235.7656 L276.3438,235.7656 L276.3438,243.8438 L278.8125,243.8438 L278.8125,246 L271.4219,246 L271.4219,243.8438 L273.8906,243.8438 L273.8906,235.7656 L271.4219,235.7656 Z "/><text fill="#000000" font-family="sans-serif" font-size="12" font-style="italic" lengthAdjust="spacingAndGlyphs" textLength="87" x="289.5" y="244.1543">NavigableMap</text><line style="stroke: #A80036; stroke-width: 1.5;" x1="261.5" x2="378.5" y1="256" y2="256"/><line style="stroke: #A80036; stroke-width: 1.5;" x1="261.5" x2="378.5" y1="264" y2="264"/><!--link AbstractMap to HashMap--><path d="M158.692,180.178 C147.381,194.8 134.904,210.929 125.041,223.678 " fill="none" id="AbstractMap-HashMap" style="stroke: #A80036; stroke-width: 1.0;"/><polygon fill="none" points="153.433,175.536,171.207,164,164.506,184.103,153.433,175.536" style="stroke: #A80036; stroke-width: 1.0;"/><!--link Map to HashMap--><path d="M146.578,70.709 C134.589,83.789 122.93,99.378 116,116 C101.2629,151.349 101.9922,196.72 104.2351,223.735 " fill="none" id="Map-HashMap" style="stroke: #A80036; stroke-width: 1.0; stroke-dasharray: 7.0,7.0;"/><polygon fill="none" points="142.016,65.368,161.071,56.099,151.956,75.228,142.016,65.368" style="stroke: #A80036; stroke-width: 1.0;"/><!--link Map to AbstractMap--><path d="M189,76.024 C189,89.579 189,104.038 189,115.678 " fill="none" id="Map-AbstractMap" style="stroke: #A80036; stroke-width: 1.0; stroke-dasharray: 7.0,7.0;"/><polygon fill="none" points="182,76,189,56,196,76,182,76" style="stroke: #A80036; stroke-width: 1.0;"/><!--link Dictionary to Hashtable--><path d="M463,76.024 C463,89.579 463,104.038 463,115.678 " fill="none" id="Dictionary-Hashtable" style="stroke: #A80036; stroke-width: 1.0;"/><polygon fill="none" points="456,76,463,56,470,76,456,76" style="stroke: #A80036; stroke-width: 1.0;"/><!--link Map to Hashtable--><path d="M236.946,51.548 C286.806,70.837 364.436,100.869 414.5,120.237 " fill="none" id="Map-Hashtable" style="stroke: #A80036; stroke-width: 1.0; stroke-dasharray: 7.0,7.0;"/><polygon fill="none" points="234.191,57.988,218.063,44.244,239.242,44.931,234.191,57.988" style="stroke: #A80036; stroke-width: 1.0;"/><!--link Map to SortedMap--><path d="M234.33,67.078 C255.583,83.056 280.35,101.675 299.359,115.965 " fill="none" id="Map-SortedMap" style="stroke: #A80036; stroke-width: 1.0;"/><polygon fill="none" points="229.995,72.577,218.215,54.963,238.408,61.386,229.995,72.577" style="stroke: #A80036; stroke-width: 1.0;"/><!--link HashMap to LinkedHashMap--><path d="M92.7165,291.0569 C88.0188,304.8891 82.968,319.7609 78.9205,331.6784 " fill="none" id="HashMap-LinkedHashMap" style="stroke: #A80036; stroke-width: 1.0;"/><polygon fill="none" points="86.1286,288.687,99.1885,272,99.385,293.1892,86.1286,288.687" style="stroke: #A80036; stroke-width: 1.0;"/><!--link Map to LinkedHashMap--><path d="M144.233,67.35 C128.017,81.26 110.412,98.228 97,116 C64.791,158.678 56.091,171.917 44,224 C35.2832,261.549 49.2237,305.483 60.103,331.7336 " fill="none" id="Map-LinkedHashMap" style="stroke: #A80036; stroke-width: 1.0; stroke-dasharray: 7.0,7.0;"/><polygon fill="none" points="139.891,61.858,159.778,54.543,148.793,72.663,139.891,61.858" style="stroke: #A80036; stroke-width: 1.0;"/><!--link Hashtable to Properties--><path d="M463,184.024 C463,197.579 463,212.038 463,223.678 " fill="none" id="Hashtable-Properties" style="stroke: #A80036; stroke-width: 1.0;"/><polygon fill="none" points="456,184,463,164,470,184,456,184" style="stroke: #A80036; stroke-width: 1.0;"/><!--link AbstractMap to TreeMap--><path d="M199.458,184.038 C210.271,228.539 226.751,296.3612 235.343,331.7196 " fill="none" id="AbstractMap-TreeMap" style="stroke: #A80036; stroke-width: 1.0;"/><polygon fill="none" points="192.584,185.396,194.664,164.309,206.188,182.091,192.584,185.396" style="stroke: #A80036; stroke-width: 1.0;"/><!--link NavigableMap to TreeMap--><path d="M290.801,288.1784 C279.904,302.7995 267.883,318.9295 258.381,331.6784 " fill="none" id="NavigableMap-TreeMap" style="stroke: #A80036; stroke-width: 1.0; stroke-dasharray: 7.0,7.0;"/><polygon fill="none" points="285.294,283.8536,302.858,272,296.519,292.2197,285.294,283.8536" style="stroke: #A80036; stroke-width: 1.0;"/><!--link SortedMap to NavigableMap--><path d="M325.941,184.024 C324.662,197.579 323.298,212.038 322.2,223.678 " fill="none" id="SortedMap-NavigableMap" style="stroke: #A80036; stroke-width: 1.0;"/><polygon fill="none" points="318.983,183.255,327.83,164,332.921,184.57,318.983,183.255" style="stroke: #A80036; stroke-width: 1.0;"/><!--
@startuml
interface Map{
  }

class HashMap{
  }

abstract class AbstractMap{
  }

class Hashtable{
  }

abstract class Dictionary{
  }

interface SortedMap{
  }

class LinkedHashMap{
  }

class Properties{
  }

class TreeMap{
  }

interface NavigableMap{
  }

AbstractMap <|- - HashMap
Map <|.. HashMap

Map <|.. AbstractMap

Dictionary <|- - Hashtable
Map <|.. Hashtable

Map <|- - SortedMap

HashMap <|- - LinkedHashMap
Map <|.. LinkedHashMap

Hashtable <|- - Properties

AbstractMap <|- - TreeMap
NavigableMap <|.. TreeMap

SortedMap <|- - NavigableMap
@enduml

PlantUML version 1.2019.01(Sat Feb 09 15:32:04 UTC 2019)
(GPL source distribution)
Java Runtime: OpenJDK Runtime Environment
JVM: OpenJDK 64-Bit Server VM
Java Version: 1.8.0_181-8u181-b13-2~deb9u1-b13
Operating System: Linux
OS Version: 3.10.0-957.5.1.el7.x86_64
Default Encoding: UTF-8
Language: en
Country: null
--></g></svg>