<?xml version="1.0" encoding="UTF-8" standalone="no"?><svg xmlns="http://www.w3.org/2000/svg" xmlns:xlink="http://www.w3.org/1999/xlink" contentScriptType="application/ecmascript" contentStyleType="text/css" height="607px" preserveAspectRatio="none" style="width:1194px;height:607px;" version="1.1" viewBox="0 0 1194 607" width="1194px" zoomAndPan="magnify"><defs><filter height="300%" id="f123zwncy19jkv" width="300%" x="-1" y="-1"><feGaussianBlur result="blurOut" stdDeviation="2.0"/><feColorMatrix in="blurOut" result="blurOut2" type="matrix" values="0 0 0 0 0 0 0 0 0 0 0 0 0 0 0 0 0 0 .4 0"/><feOffset dx="4.0" dy="4.0" in="blurOut2" result="blurOut3"/><feBlend in="SourceGraphic" in2="blurOut3" mode="normal"/></filter></defs><g><!--class Iterable--><rect fill="#FEFECE" filter="url(#f123zwncy19jkv)" height="48" id="Iterable" style="stroke: #A80036; stroke-width: 1.5;" width="80" x="650.5" y="8"/><ellipse cx="665.5" cy="24" fill="#B4A7E5" rx="11" ry="11" style="stroke: #A80036; stroke-width: 1.0;"/><path d="M661.4219,19.7656 L661.4219,17.6094 L668.8125,17.6094 L668.8125,19.7656 L666.3438,19.7656 L666.3438,27.8438 L668.8125,27.8438 L668.8125,30 L661.4219,30 L661.4219,27.8438 L663.8906,27.8438 L663.8906,19.7656 L661.4219,19.7656 Z "/><text fill="#000000" font-family="sans-serif" font-size="12" font-style="italic" lengthAdjust="spacingAndGlyphs" textLength="48" x="679.5" y="28.1543">Iterable</text><line style="stroke: #A80036; stroke-width: 1.5;" x1="651.5" x2="729.5" y1="40" y2="40"/><line style="stroke: #A80036; stroke-width: 1.5;" x1="651.5" x2="729.5" y1="48" y2="48"/><!--class Collection--><rect fill="#FEFECE" filter="url(#f123zwncy19jkv)" height="48" id="Collection" style="stroke: #A80036; stroke-width: 1.5;" width="93" x="644" y="116"/><ellipse cx="659" cy="132" fill="#B4A7E5" rx="11" ry="11" style="stroke: #A80036; stroke-width: 1.0;"/><path d="M654.9219,127.7656 L654.9219,125.6094 L662.3125,125.6094 L662.3125,127.7656 L659.8438,127.7656 L659.8438,135.8438 L662.3125,135.8438 L662.3125,138 L654.9219,138 L654.9219,135.8438 L657.3906,135.8438 L657.3906,127.7656 L654.9219,127.7656 Z "/><text fill="#000000" font-family="sans-serif" font-size="12" font-style="italic" lengthAdjust="spacingAndGlyphs" textLength="61" x="673" y="136.1543">Collection</text><line style="stroke: #A80036; stroke-width: 1.5;" x1="645" x2="736" y1="148" y2="148"/><line style="stroke: #A80036; stroke-width: 1.5;" x1="645" x2="736" y1="156" y2="156"/><!--class Set--><rect fill="#FEFECE" filter="url(#f123zwncy19jkv)" height="48" id="Set" style="stroke: #A80036; stroke-width: 1.5;" width="53" x="168" y="224"/><ellipse cx="183" cy="240" fill="#B4A7E5" rx="11" ry="11" style="stroke: #A80036; stroke-width: 1.0;"/><path d="M178.9219,235.7656 L178.9219,233.6094 L186.3125,233.6094 L186.3125,235.7656 L183.8438,235.7656 L183.8438,243.8438 L186.3125,243.8438 L186.3125,246 L178.9219,246 L178.9219,243.8438 L181.3906,243.8438 L181.3906,235.7656 L178.9219,235.7656 Z "/><text fill="#000000" font-family="sans-serif" font-size="12" font-style="italic" lengthAdjust="spacingAndGlyphs" textLength="21" x="197" y="244.1543">Set</text><line style="stroke: #A80036; stroke-width: 1.5;" x1="169" x2="220" y1="256" y2="256"/><line style="stroke: #A80036; stroke-width: 1.5;" x1="169" x2="220" y1="264" y2="264"/><!--class Queue--><rect fill="#FEFECE" filter="url(#f123zwncy19jkv)" height="48" id="Queue" style="stroke: #A80036; stroke-width: 1.5;" width="73" x="948" y="224"/><ellipse cx="963" cy="240" fill="#B4A7E5" rx="11" ry="11" style="stroke: #A80036; stroke-width: 1.0;"/><path d="M958.9219,235.7656 L958.9219,233.6094 L966.3125,233.6094 L966.3125,235.7656 L963.8438,235.7656 L963.8438,243.8438 L966.3125,243.8438 L966.3125,246 L958.9219,246 L958.9219,243.8438 L961.3906,243.8438 L961.3906,235.7656 L958.9219,235.7656 Z "/><text fill="#000000" font-family="sans-serif" font-size="12" font-style="italic" lengthAdjust="spacingAndGlyphs" textLength="41" x="977" y="244.1543">Queue</text><line style="stroke: #A80036; stroke-width: 1.5;" x1="949" x2="1020" y1="256" y2="256"/><line style="stroke: #A80036; stroke-width: 1.5;" x1="949" x2="1020" y1="264" y2="264"/><!--class List--><rect fill="#FEFECE" filter="url(#f123zwncy19jkv)" height="48" id="List" style="stroke: #A80036; stroke-width: 1.5;" width="53" x="597" y="224"/><ellipse cx="612" cy="240" fill="#B4A7E5" rx="11" ry="11" style="stroke: #A80036; stroke-width: 1.0;"/><path d="M607.9219,235.7656 L607.9219,233.6094 L615.3125,233.6094 L615.3125,235.7656 L612.8438,235.7656 L612.8438,243.8438 L615.3125,243.8438 L615.3125,246 L607.9219,246 L607.9219,243.8438 L610.3906,243.8438 L610.3906,235.7656 L607.9219,235.7656 Z "/><text fill="#000000" font-family="sans-serif" font-size="12" font-style="italic" lengthAdjust="spacingAndGlyphs" textLength="21" x="626" y="244.1543">List</text><line style="stroke: #A80036; stroke-width: 1.5;" x1="598" x2="649" y1="256" y2="256"/><line style="stroke: #A80036; stroke-width: 1.5;" x1="598" x2="649" y1="264" y2="264"/><!--class SortedSet--><rect fill="#FEFECE" filter="url(#f123zwncy19jkv)" height="48" id="SortedSet" style="stroke: #A80036; stroke-width: 1.5;" width="95" x="147" y="332"/><ellipse cx="162" cy="348" fill="#B4A7E5" rx="11" ry="11" style="stroke: #A80036; stroke-width: 1.0;"/><path d="M157.9219,343.7656 L157.9219,341.6094 L165.3125,341.6094 L165.3125,343.7656 L162.8438,343.7656 L162.8438,351.8438 L165.3125,351.8438 L165.3125,354 L157.9219,354 L157.9219,351.8438 L160.3906,351.8438 L160.3906,343.7656 L157.9219,343.7656 Z "/><text fill="#000000" font-family="sans-serif" font-size="12" font-style="italic" lengthAdjust="spacingAndGlyphs" textLength="63" x="176" y="352.1543">SortedSet</text><line style="stroke: #A80036; stroke-width: 1.5;" x1="148" x2="241" y1="364" y2="364"/><line style="stroke: #A80036; stroke-width: 1.5;" x1="148" x2="241" y1="372" y2="372"/><!--class HashSet--><rect fill="#FEFECE" filter="url(#f123zwncy19jkv)" height="48" id="HashSet" style="stroke: #A80036; stroke-width: 1.5;" width="85" x="51" y="440"/><ellipse cx="66" cy="456" fill="#ADD1B2" rx="11" ry="11" style="stroke: #A80036; stroke-width: 1.0;"/><path d="M68.9688,461.6406 Q68.3906,461.9375 67.75,462.0859 Q67.1094,462.2344 66.4063,462.2344 Q63.9063,462.2344 62.5859,460.5859 Q61.2656,458.9375 61.2656,455.8125 Q61.2656,452.6875 62.5859,451.0313 Q63.9063,449.375 66.4063,449.375 Q67.1094,449.375 67.7578,449.5313 Q68.4063,449.6875 68.9688,449.9844 L68.9688,452.7031 Q68.3438,452.125 67.75,451.8516 Q67.1563,451.5781 66.5313,451.5781 Q65.1875,451.5781 64.5,452.6484 Q63.8125,453.7188 63.8125,455.8125 Q63.8125,457.9063 64.5,458.9766 Q65.1875,460.0469 66.5313,460.0469 Q67.1563,460.0469 67.75,459.7734 Q68.3438,459.5 68.9688,458.9219 L68.9688,461.6406 Z "/><text fill="#000000" font-family="sans-serif" font-size="12" lengthAdjust="spacingAndGlyphs" textLength="53" x="80" y="460.1543">HashSet</text><line style="stroke: #A80036; stroke-width: 1.5;" x1="52" x2="135" y1="472" y2="472"/><line style="stroke: #A80036; stroke-width: 1.5;" x1="52" x2="135" y1="480" y2="480"/><!--class AbstractSet--><rect fill="#FEFECE" filter="url(#f123zwncy19jkv)" height="48" id="AbstractSet" style="stroke: #A80036; stroke-width: 1.5;" width="106" x="277.5" y="332"/><ellipse cx="292.5" cy="348" fill="#A9DCDF" rx="11" ry="11" style="stroke: #A80036; stroke-width: 1.0;"/><path d="M292.6094,343.3438 L291.4531,348.4219 L293.7813,348.4219 L292.6094,343.3438 Z M291.125,341.1094 L294.1094,341.1094 L297.4688,353.5 L295.0156,353.5 L294.25,350.4375 L290.9688,350.4375 L290.2188,353.5 L287.7813,353.5 L291.125,341.1094 Z "/><text fill="#000000" font-family="sans-serif" font-size="12" font-style="italic" lengthAdjust="spacingAndGlyphs" textLength="74" x="306.5" y="352.1543">AbstractSet</text><line style="stroke: #A80036; stroke-width: 1.5;" x1="278.5" x2="382.5" y1="364" y2="364"/><line style="stroke: #A80036; stroke-width: 1.5;" x1="278.5" x2="382.5" y1="372" y2="372"/><!--class AbstractCollection--><rect fill="#FEFECE" filter="url(#f123zwncy19jkv)" height="48" id="AbstractCollection" style="stroke: #A80036; stroke-width: 1.5;" width="146" x="685.5" y="224"/><ellipse cx="700.5" cy="240" fill="#A9DCDF" rx="11" ry="11" style="stroke: #A80036; stroke-width: 1.0;"/><path d="M700.6094,235.3438 L699.4531,240.4219 L701.7813,240.4219 L700.6094,235.3438 Z M699.125,233.1094 L702.1094,233.1094 L705.4688,245.5 L703.0156,245.5 L702.25,242.4375 L698.9688,242.4375 L698.2188,245.5 L695.7813,245.5 L699.125,233.1094 Z "/><text fill="#000000" font-family="sans-serif" font-size="12" font-style="italic" lengthAdjust="spacingAndGlyphs" textLength="114" x="714.5" y="244.1543">AbstractCollection</text><line style="stroke: #A80036; stroke-width: 1.5;" x1="686.5" x2="830.5" y1="256" y2="256"/><line style="stroke: #A80036; stroke-width: 1.5;" x1="686.5" x2="830.5" y1="264" y2="264"/><!--class ArrayList--><rect fill="#FEFECE" filter="url(#f123zwncy19jkv)" height="48" id="ArrayList" style="stroke: #A80036; stroke-width: 1.5;" width="85" x="490" y="440"/><ellipse cx="505" cy="456" fill="#ADD1B2" rx="11" ry="11" style="stroke: #A80036; stroke-width: 1.0;"/><path d="M507.9688,461.6406 Q507.3906,461.9375 506.75,462.0859 Q506.1094,462.2344 505.4063,462.2344 Q502.9063,462.2344 501.5859,460.5859 Q500.2656,458.9375 500.2656,455.8125 Q500.2656,452.6875 501.5859,451.0313 Q502.9063,449.375 505.4063,449.375 Q506.1094,449.375 506.7578,449.5313 Q507.4063,449.6875 507.9688,449.9844 L507.9688,452.7031 Q507.3438,452.125 506.75,451.8516 Q506.1563,451.5781 505.5313,451.5781 Q504.1875,451.5781 503.5,452.6484 Q502.8125,453.7188 502.8125,455.8125 Q502.8125,457.9063 503.5,458.9766 Q504.1875,460.0469 505.5313,460.0469 Q506.1563,460.0469 506.75,459.7734 Q507.3438,459.5 507.9688,458.9219 L507.9688,461.6406 Z "/><text fill="#000000" font-family="sans-serif" font-size="12" lengthAdjust="spacingAndGlyphs" textLength="53" x="519" y="460.1543">ArrayList</text><line style="stroke: #A80036; stroke-width: 1.5;" x1="491" x2="574" y1="472" y2="472"/><line style="stroke: #A80036; stroke-width: 1.5;" x1="491" x2="574" y1="480" y2="480"/><!--class AbstractList--><rect fill="#FEFECE" filter="url(#f123zwncy19jkv)" height="48" id="AbstractList" style="stroke: #A80036; stroke-width: 1.5;" width="106" x="638.5" y="332"/><ellipse cx="653.5" cy="348" fill="#A9DCDF" rx="11" ry="11" style="stroke: #A80036; stroke-width: 1.0;"/><path d="M653.6094,343.3438 L652.4531,348.4219 L654.7813,348.4219 L653.6094,343.3438 Z M652.125,341.1094 L655.1094,341.1094 L658.4688,353.5 L656.0156,353.5 L655.25,350.4375 L651.9688,350.4375 L651.2188,353.5 L648.7813,353.5 L652.125,341.1094 Z "/><text fill="#000000" font-family="sans-serif" font-size="12" font-style="italic" lengthAdjust="spacingAndGlyphs" textLength="74" x="667.5" y="352.1543">AbstractList</text><line style="stroke: #A80036; stroke-width: 1.5;" x1="639.5" x2="743.5" y1="364" y2="364"/><line style="stroke: #A80036; stroke-width: 1.5;" x1="639.5" x2="743.5" y1="372" y2="372"/><!--class Vector--><rect fill="#FEFECE" filter="url(#f123zwncy19jkv)" height="48" id="Vector" style="stroke: #A80036; stroke-width: 1.5;" width="73" x="818" y="440"/><ellipse cx="833" cy="456" fill="#ADD1B2" rx="11" ry="11" style="stroke: #A80036; stroke-width: 1.0;"/><path d="M835.9688,461.6406 Q835.3906,461.9375 834.75,462.0859 Q834.1094,462.2344 833.4063,462.2344 Q830.9063,462.2344 829.5859,460.5859 Q828.2656,458.9375 828.2656,455.8125 Q828.2656,452.6875 829.5859,451.0313 Q830.9063,449.375 833.4063,449.375 Q834.1094,449.375 834.7578,449.5313 Q835.4063,449.6875 835.9688,449.9844 L835.9688,452.7031 Q835.3438,452.125 834.75,451.8516 Q834.1563,451.5781 833.5313,451.5781 Q832.1875,451.5781 831.5,452.6484 Q830.8125,453.7188 830.8125,455.8125 Q830.8125,457.9063 831.5,458.9766 Q832.1875,460.0469 833.5313,460.0469 Q834.1563,460.0469 834.75,459.7734 Q835.3438,459.5 835.9688,458.9219 L835.9688,461.6406 Z "/><text fill="#000000" font-family="sans-serif" font-size="12" lengthAdjust="spacingAndGlyphs" textLength="41" x="847" y="460.1543">Vector</text><line style="stroke: #A80036; stroke-width: 1.5;" x1="819" x2="890" y1="472" y2="472"/><line style="stroke: #A80036; stroke-width: 1.5;" x1="819" x2="890" y1="480" y2="480"/><!--class Deque--><rect fill="#FEFECE" filter="url(#f123zwncy19jkv)" height="48" id="Deque" style="stroke: #A80036; stroke-width: 1.5;" width="73" x="1088" y="332"/><ellipse cx="1103" cy="348" fill="#B4A7E5" rx="11" ry="11" style="stroke: #A80036; stroke-width: 1.0;"/><path d="M1098.9219,343.7656 L1098.9219,341.6094 L1106.3125,341.6094 L1106.3125,343.7656 L1103.8438,343.7656 L1103.8438,351.8438 L1106.3125,351.8438 L1106.3125,354 L1098.9219,354 L1098.9219,351.8438 L1101.3906,351.8438 L1101.3906,343.7656 L1098.9219,343.7656 Z "/><text fill="#000000" font-family="sans-serif" font-size="12" font-style="italic" lengthAdjust="spacingAndGlyphs" textLength="41" x="1117" y="352.1543">Deque</text><line style="stroke: #A80036; stroke-width: 1.5;" x1="1089" x2="1160" y1="364" y2="364"/><line style="stroke: #A80036; stroke-width: 1.5;" x1="1089" x2="1160" y1="372" y2="372"/><!--class PriorityQueue--><rect fill="#FEFECE" filter="url(#f123zwncy19jkv)" height="48" id="PriorityQueue" style="stroke: #A80036; stroke-width: 1.5;" width="116" x="926.5" y="440"/><ellipse cx="941.5" cy="456" fill="#ADD1B2" rx="11" ry="11" style="stroke: #A80036; stroke-width: 1.0;"/><path d="M944.4688,461.6406 Q943.8906,461.9375 943.25,462.0859 Q942.6094,462.2344 941.9063,462.2344 Q939.4063,462.2344 938.0859,460.5859 Q936.7656,458.9375 936.7656,455.8125 Q936.7656,452.6875 938.0859,451.0313 Q939.4063,449.375 941.9063,449.375 Q942.6094,449.375 943.2578,449.5313 Q943.9063,449.6875 944.4688,449.9844 L944.4688,452.7031 Q943.8438,452.125 943.25,451.8516 Q942.6563,451.5781 942.0313,451.5781 Q940.6875,451.5781 940,452.6484 Q939.3125,453.7188 939.3125,455.8125 Q939.3125,457.9063 940,458.9766 Q940.6875,460.0469 942.0313,460.0469 Q942.6563,460.0469 943.25,459.7734 Q943.8438,459.5 944.4688,458.9219 L944.4688,461.6406 Z "/><text fill="#000000" font-family="sans-serif" font-size="12" lengthAdjust="spacingAndGlyphs" textLength="84" x="955.5" y="460.1543">PriorityQueue</text><line style="stroke: #A80036; stroke-width: 1.5;" x1="927.5" x2="1041.5" y1="472" y2="472"/><line style="stroke: #A80036; stroke-width: 1.5;" x1="927.5" x2="1041.5" y1="480" y2="480"/><!--class AbstractQueue--><rect fill="#FEFECE" filter="url(#f123zwncy19jkv)" height="48" id="AbstractQueue" style="stroke: #A80036; stroke-width: 1.5;" width="126" x="921.5" y="332"/><ellipse cx="936.5" cy="348" fill="#A9DCDF" rx="11" ry="11" style="stroke: #A80036; stroke-width: 1.0;"/><path d="M936.6094,343.3438 L935.4531,348.4219 L937.7813,348.4219 L936.6094,343.3438 Z M935.125,341.1094 L938.1094,341.1094 L941.4688,353.5 L939.0156,353.5 L938.25,350.4375 L934.9688,350.4375 L934.2188,353.5 L931.7813,353.5 L935.125,341.1094 Z "/><text fill="#000000" font-family="sans-serif" font-size="12" font-style="italic" lengthAdjust="spacingAndGlyphs" textLength="94" x="950.5" y="352.1543">AbstractQueue</text><line style="stroke: #A80036; stroke-width: 1.5;" x1="922.5" x2="1046.5" y1="364" y2="364"/><line style="stroke: #A80036; stroke-width: 1.5;" x1="922.5" x2="1046.5" y1="372" y2="372"/><!--class TreeSet--><rect fill="#FEFECE" filter="url(#f123zwncy19jkv)" height="48" id="TreeSet" style="stroke: #A80036; stroke-width: 1.5;" width="81" x="212" y="548"/><ellipse cx="227" cy="564" fill="#ADD1B2" rx="11" ry="11" style="stroke: #A80036; stroke-width: 1.0;"/><path d="M229.9688,569.6406 Q229.3906,569.9375 228.75,570.0859 Q228.1094,570.2344 227.4063,570.2344 Q224.9063,570.2344 223.5859,568.5859 Q222.2656,566.9375 222.2656,563.8125 Q222.2656,560.6875 223.5859,559.0313 Q224.9063,557.375 227.4063,557.375 Q228.1094,557.375 228.7578,557.5313 Q229.4063,557.6875 229.9688,557.9844 L229.9688,560.7031 Q229.3438,560.125 228.75,559.8516 Q228.1563,559.5781 227.5313,559.5781 Q226.1875,559.5781 225.5,560.6484 Q224.8125,561.7188 224.8125,563.8125 Q224.8125,565.9063 225.5,566.9766 Q226.1875,568.0469 227.5313,568.0469 Q228.1563,568.0469 228.75,567.7734 Q229.3438,567.5 229.9688,566.9219 L229.9688,569.6406 Z "/><text fill="#000000" font-family="sans-serif" font-size="12" lengthAdjust="spacingAndGlyphs" textLength="49" x="241" y="568.1543">TreeSet</text><line style="stroke: #A80036; stroke-width: 1.5;" x1="213" x2="292" y1="580" y2="580"/><line style="stroke: #A80036; stroke-width: 1.5;" x1="213" x2="292" y1="588" y2="588"/><!--class NavigableSet--><rect fill="#FEFECE" filter="url(#f123zwncy19jkv)" height="48" id="NavigableSet" style="stroke: #A80036; stroke-width: 1.5;" width="114" x="171.5" y="440"/><ellipse cx="186.5" cy="456" fill="#B4A7E5" rx="11" ry="11" style="stroke: #A80036; stroke-width: 1.0;"/><path d="M182.4219,451.7656 L182.4219,449.6094 L189.8125,449.6094 L189.8125,451.7656 L187.3438,451.7656 L187.3438,459.8438 L189.8125,459.8438 L189.8125,462 L182.4219,462 L182.4219,459.8438 L184.8906,459.8438 L184.8906,451.7656 L182.4219,451.7656 Z "/><text fill="#000000" font-family="sans-serif" font-size="12" font-style="italic" lengthAdjust="spacingAndGlyphs" textLength="82" x="200.5" y="460.1543">NavigableSet</text><line style="stroke: #A80036; stroke-width: 1.5;" x1="172.5" x2="284.5" y1="472" y2="472"/><line style="stroke: #A80036; stroke-width: 1.5;" x1="172.5" x2="284.5" y1="480" y2="480"/><!--class LinkedHashSet--><rect fill="#FEFECE" filter="url(#f123zwncy19jkv)" height="48" id="LinkedHashSet" style="stroke: #A80036; stroke-width: 1.5;" width="125" x="6" y="548"/><ellipse cx="21" cy="564" fill="#ADD1B2" rx="11" ry="11" style="stroke: #A80036; stroke-width: 1.0;"/><path d="M23.9688,569.6406 Q23.3906,569.9375 22.75,570.0859 Q22.1094,570.2344 21.4063,570.2344 Q18.9063,570.2344 17.5859,568.5859 Q16.2656,566.9375 16.2656,563.8125 Q16.2656,560.6875 17.5859,559.0313 Q18.9063,557.375 21.4063,557.375 Q22.1094,557.375 22.7578,557.5313 Q23.4063,557.6875 23.9688,557.9844 L23.9688,560.7031 Q23.3438,560.125 22.75,559.8516 Q22.1563,559.5781 21.5313,559.5781 Q20.1875,559.5781 19.5,560.6484 Q18.8125,561.7188 18.8125,563.8125 Q18.8125,565.9063 19.5,566.9766 Q20.1875,568.0469 21.5313,568.0469 Q22.1563,568.0469 22.75,567.7734 Q23.3438,567.5 23.9688,566.9219 L23.9688,569.6406 Z "/><text fill="#000000" font-family="sans-serif" font-size="12" lengthAdjust="spacingAndGlyphs" textLength="93" x="35" y="568.1543">LinkedHashSet</text><line style="stroke: #A80036; stroke-width: 1.5;" x1="7" x2="130" y1="580" y2="580"/><line style="stroke: #A80036; stroke-width: 1.5;" x1="7" x2="130" y1="588" y2="588"/><!--class LinkedList--><rect fill="#FEFECE" filter="url(#f123zwncy19jkv)" height="48" id="LinkedList" style="stroke: #A80036; stroke-width: 1.5;" width="93" x="520" y="548"/><ellipse cx="535" cy="564" fill="#ADD1B2" rx="11" ry="11" style="stroke: #A80036; stroke-width: 1.0;"/><path d="M537.9688,569.6406 Q537.3906,569.9375 536.75,570.0859 Q536.1094,570.2344 535.4063,570.2344 Q532.9063,570.2344 531.5859,568.5859 Q530.2656,566.9375 530.2656,563.8125 Q530.2656,560.6875 531.5859,559.0313 Q532.9063,557.375 535.4063,557.375 Q536.1094,557.375 536.7578,557.5313 Q537.4063,557.6875 537.9688,557.9844 L537.9688,560.7031 Q537.3438,560.125 536.75,559.8516 Q536.1563,559.5781 535.5313,559.5781 Q534.1875,559.5781 533.5,560.6484 Q532.8125,561.7188 532.8125,563.8125 Q532.8125,565.9063 533.5,566.9766 Q534.1875,568.0469 535.5313,568.0469 Q536.1563,568.0469 536.75,567.7734 Q537.3438,567.5 537.9688,566.9219 L537.9688,569.6406 Z "/><text fill="#000000" font-family="sans-serif" font-size="12" lengthAdjust="spacingAndGlyphs" textLength="61" x="549" y="568.1543">LinkedList</text><line style="stroke: #A80036; stroke-width: 1.5;" x1="521" x2="612" y1="580" y2="580"/><line style="stroke: #A80036; stroke-width: 1.5;" x1="521" x2="612" y1="588" y2="588"/><!--class AbstractSequentialList--><rect fill="#FEFECE" filter="url(#f123zwncy19jkv)" height="48" id="AbstractSequentialList" style="stroke: #A80036; stroke-width: 1.5;" width="173" x="610" y="440"/><ellipse cx="625" cy="456" fill="#A9DCDF" rx="11" ry="11" style="stroke: #A80036; stroke-width: 1.0;"/><path d="M625.1094,451.3438 L623.9531,456.4219 L626.2813,456.4219 L625.1094,451.3438 Z M623.625,449.1094 L626.6094,449.1094 L629.9688,461.5 L627.5156,461.5 L626.75,458.4375 L623.4688,458.4375 L622.7188,461.5 L620.2813,461.5 L623.625,449.1094 Z "/><text fill="#000000" font-family="sans-serif" font-size="12" font-style="italic" lengthAdjust="spacingAndGlyphs" textLength="141" x="639" y="460.1543">AbstractSequentialList</text><line style="stroke: #A80036; stroke-width: 1.5;" x1="611" x2="782" y1="472" y2="472"/><line style="stroke: #A80036; stroke-width: 1.5;" x1="611" x2="782" y1="480" y2="480"/><!--class Stack--><rect fill="#FEFECE" filter="url(#f123zwncy19jkv)" height="48" id="Stack" style="stroke: #A80036; stroke-width: 1.5;" width="67" x="821" y="548"/><ellipse cx="836" cy="564" fill="#ADD1B2" rx="11" ry="11" style="stroke: #A80036; stroke-width: 1.0;"/><path d="M838.9688,569.6406 Q838.3906,569.9375 837.75,570.0859 Q837.1094,570.2344 836.4063,570.2344 Q833.9063,570.2344 832.5859,568.5859 Q831.2656,566.9375 831.2656,563.8125 Q831.2656,560.6875 832.5859,559.0313 Q833.9063,557.375 836.4063,557.375 Q837.1094,557.375 837.7578,557.5313 Q838.4063,557.6875 838.9688,557.9844 L838.9688,560.7031 Q838.3438,560.125 837.75,559.8516 Q837.1563,559.5781 836.5313,559.5781 Q835.1875,559.5781 834.5,560.6484 Q833.8125,561.7188 833.8125,563.8125 Q833.8125,565.9063 834.5,566.9766 Q835.1875,568.0469 836.5313,568.0469 Q837.1563,568.0469 837.75,567.7734 Q838.3438,567.5 838.9688,566.9219 L838.9688,569.6406 Z "/><text fill="#000000" font-family="sans-serif" font-size="12" lengthAdjust="spacingAndGlyphs" textLength="35" x="850" y="568.1543">Stack</text><line style="stroke: #A80036; stroke-width: 1.5;" x1="822" x2="887" y1="580" y2="580"/><line style="stroke: #A80036; stroke-width: 1.5;" x1="822" x2="887" y1="588" y2="588"/><!--class ArrayDeque--><rect fill="#FEFECE" filter="url(#f123zwncy19jkv)" height="48" id="ArrayDeque" style="stroke: #A80036; stroke-width: 1.5;" width="105" x="1078" y="440"/><ellipse cx="1093" cy="456" fill="#ADD1B2" rx="11" ry="11" style="stroke: #A80036; stroke-width: 1.0;"/><path d="M1095.9688,461.6406 Q1095.3906,461.9375 1094.75,462.0859 Q1094.1094,462.2344 1093.4063,462.2344 Q1090.9063,462.2344 1089.5859,460.5859 Q1088.2656,458.9375 1088.2656,455.8125 Q1088.2656,452.6875 1089.5859,451.0313 Q1090.9063,449.375 1093.4063,449.375 Q1094.1094,449.375 1094.7578,449.5313 Q1095.4063,449.6875 1095.9688,449.9844 L1095.9688,452.7031 Q1095.3438,452.125 1094.75,451.8516 Q1094.1563,451.5781 1093.5313,451.5781 Q1092.1875,451.5781 1091.5,452.6484 Q1090.8125,453.7188 1090.8125,455.8125 Q1090.8125,457.9063 1091.5,458.9766 Q1092.1875,460.0469 1093.5313,460.0469 Q1094.1563,460.0469 1094.75,459.7734 Q1095.3438,459.5 1095.9688,458.9219 L1095.9688,461.6406 Z "/><text fill="#000000" font-family="sans-serif" font-size="12" lengthAdjust="spacingAndGlyphs" textLength="73" x="1107" y="460.1543">ArrayDeque</text><line style="stroke: #A80036; stroke-width: 1.5;" x1="1079" x2="1182" y1="472" y2="472"/><line style="stroke: #A80036; stroke-width: 1.5;" x1="1079" x2="1182" y1="480" y2="480"/><!--link Iterable to Collection--><path d="M690.5,76.024 C690.5,89.579 690.5,104.038 690.5,115.678 " fill="none" id="Iterable-Collection" style="stroke: #A80036; stroke-width: 1.0;"/><polygon fill="none" points="683.5,76,690.5,56,697.5,76,683.5,76" style="stroke: #A80036; stroke-width: 1.0;"/><!--link Collection to Set--><path d="M624.2,155.169 C513.783,178.766 296.884,225.12 221.265,241.28 " fill="none" id="Collection-Set" style="stroke: #A80036; stroke-width: 1.0;"/><polygon fill="none" points="622.816,148.307,643.838,150.972,625.742,161.998,622.816,148.307" style="stroke: #A80036; stroke-width: 1.0;"/><!--link Collection to Queue--><path d="M756.06,164.637 C815.179,185.952 899.977,216.526 947.886,233.799 " fill="none" id="Collection-Queue" style="stroke: #A80036; stroke-width: 1.0;"/><polygon fill="none" points="753.525,171.165,737.085,157.796,758.274,157.994,753.525,171.165" style="stroke: #A80036; stroke-width: 1.0;"/><!--link Collection to List--><path d="M665.132,181.134 C656.052,195.499 646.124,211.207 638.241,223.678 " fill="none" id="Collection-List" style="stroke: #A80036; stroke-width: 1.0;"/><polygon fill="none" points="659.359,177.166,675.962,164,671.193,184.646,659.359,177.166" style="stroke: #A80036; stroke-width: 1.0;"/><!--link Set to SortedSet--><path d="M194.5,292.024 C194.5,305.579 194.5,320.038 194.5,331.678 " fill="none" id="Set-SortedSet" style="stroke: #A80036; stroke-width: 1.0;"/><polygon fill="none" points="187.5,292,194.5,272,201.5,292,187.5,292" style="stroke: #A80036; stroke-width: 1.0;"/><!--link AbstractSet to HashSet--><path d="M260.663,388.235 C220.264,406.304 170.732,428.457 136.115,443.94 " fill="none" id="AbstractSet-HashSet" style="stroke: #A80036; stroke-width: 1.0;"/><polygon fill="none" points="257.959,381.776,279.075,380,263.675,394.556,257.959,381.776" style="stroke: #A80036; stroke-width: 1.0;"/><!--link Set to HashSet--><path d="M158.959,287.797 C148.265,301.06 137.31,316.481 129.5,332 C111.686,367.395 101.749,412.751 97.0222,439.751 " fill="none" id="Set-HashSet" style="stroke: #A80036; stroke-width: 1.0; stroke-dasharray: 7.0,7.0;"/><polygon fill="none" points="153.829,283.024,172.108,272.307,164.502,292.084,153.829,283.024" style="stroke: #A80036; stroke-width: 1.0;"/><!--link AbstractCollection to AbstractSet--><path d="M665.767,272.414 C554.349,300.179 446.369,326.67 383.64,342.018 " fill="none" id="AbstractCollection-AbstractSet" style="stroke: #A80036; stroke-width: 1.0;"/><polygon fill="none" points="664.397,265.541,685.497,267.493,667.785,279.125,664.397,265.541" style="stroke: #A80036; stroke-width: 1.0;"/><!--link Set to AbstractSet--><path d="M237.003,282.127 C257.683,298.246 282.043,317.232 300.712,331.783 " fill="none" id="Set-AbstractSet" style="stroke: #A80036; stroke-width: 1.0; stroke-dasharray: 7.0,7.0;"/><polygon fill="none" points="232.516,287.506,221.045,269.69,241.123,276.463,232.516,287.506" style="stroke: #A80036; stroke-width: 1.0;"/><!--link Collection to AbstractCollection--><path d="M716.246,181.134 C725.462,195.499 735.538,211.207 743.539,223.678 " fill="none" id="Collection-AbstractCollection" style="stroke: #A80036; stroke-width: 1.0; stroke-dasharray: 7.0,7.0;"/><polygon fill="none" points="710.162,184.614,705.255,164,721.946,177.055,710.162,184.614" style="stroke: #A80036; stroke-width: 1.0;"/><!--link AbstractList to ArrayList--><path d="M640.081,391.279 C616.24,407.173 588.532,425.645 567.207,439.862 " fill="none" id="AbstractList-ArrayList" style="stroke: #A80036; stroke-width: 1.0;"/><polygon fill="none" points="636.475,385.27,656.999,380,644.241,396.919,636.475,385.27" style="stroke: #A80036; stroke-width: 1.0;"/><!--link List to ArrayList--><path d="M605.713,290.83 C586.801,335.304 557.572,404.04 542.4,439.72 " fill="none" id="List-ArrayList" style="stroke: #A80036; stroke-width: 1.0; stroke-dasharray: 7.0,7.0;"/><polygon fill="none" points="599.32,287.975,613.588,272.309,612.203,293.453,599.32,287.975" style="stroke: #A80036; stroke-width: 1.0;"/><!--link AbstractCollection to AbstractList--><path d="M733.132,289.134 C724.052,303.499 714.124,319.207 706.241,331.678 " fill="none" id="AbstractCollection-AbstractList" style="stroke: #A80036; stroke-width: 1.0;"/><polygon fill="none" points="727.359,285.166,743.962,272,739.193,292.646,727.359,285.166" style="stroke: #A80036; stroke-width: 1.0;"/><!--link List to AbstractList--><path d="M649.246,289.134 C658.462,303.499 668.538,319.207 676.539,331.678 " fill="none" id="List-AbstractList" style="stroke: #A80036; stroke-width: 1.0; stroke-dasharray: 7.0,7.0;"/><polygon fill="none" points="643.162,292.614,638.255,272,654.946,285.055,643.162,292.614" style="stroke: #A80036; stroke-width: 1.0;"/><!--link AbstractList to Vector--><path d="M743.855,391.047 C768.376,406.993 796.951,425.576 818.919,439.862 " fill="none" id="AbstractList-Vector" style="stroke: #A80036; stroke-width: 1.0;"/><polygon fill="none" points="739.819,396.772,726.869,380,747.451,385.036,739.819,396.772" style="stroke: #A80036; stroke-width: 1.0;"/><!--link List to Vector--><path d="M668.012,273.151 C702.278,292.22 746.275,317.889 761.5,332 C796.48,364.422 826.224,411.98 842.119,439.987 " fill="none" id="List-Vector" style="stroke: #A80036; stroke-width: 1.0; stroke-dasharray: 7.0,7.0;"/><polygon fill="none" points="664.361,279.132,650.22,263.351,671.116,266.869,664.361,279.132" style="stroke: #A80036; stroke-width: 1.0;"/><!--link Queue to Deque--><path d="M1030.95,284.168 C1051.58,299.79 1075.3,317.752 1093.7,331.678 " fill="none" id="Queue-Deque" style="stroke: #A80036; stroke-width: 1.0;"/><polygon fill="none" points="1026.6,289.654,1014.88,272,1035.05,278.492,1026.6,289.654" style="stroke: #A80036; stroke-width: 1.0;"/><!--link AbstractQueue to PriorityQueue--><path d="M984.5,400.024 C984.5,413.579 984.5,428.038 984.5,439.678 " fill="none" id="AbstractQueue-PriorityQueue" style="stroke: #A80036; stroke-width: 1.0;"/><polygon fill="none" points="977.5,400,984.5,380,991.5,400,977.5,400" style="stroke: #A80036; stroke-width: 1.0;"/><!--link AbstractCollection to AbstractQueue--><path d="M825.694,280.516 C860.832,296.996 903.082,316.813 935.167,331.862 " fill="none" id="AbstractCollection-AbstractQueue" style="stroke: #A80036; stroke-width: 1.0;"/><polygon fill="none" points="822.673,286.831,807.539,272,828.618,274.156,822.673,286.831" style="stroke: #A80036; stroke-width: 1.0;"/><!--link Queue to AbstractQueue--><path d="M984.5,292.024 C984.5,305.579 984.5,320.038 984.5,331.678 " fill="none" id="Queue-AbstractQueue" style="stroke: #A80036; stroke-width: 1.0; stroke-dasharray: 7.0,7.0;"/><polygon fill="none" points="977.5,292,984.5,272,991.5,292,977.5,292" style="stroke: #A80036; stroke-width: 1.0;"/><!--link AbstractSet to TreeSet--><path d="M324.95,400.25 C320.71,426.3 313.653,459.781 302.5,488 C294.029,509.4334 280.305,531.6969 269.376,547.7637 " fill="none" id="AbstractSet-TreeSet" style="stroke: #A80036; stroke-width: 1.0;"/><polygon fill="none" points="318.035,399.159,327.877,380.394,331.885,401.201,318.035,399.159" style="stroke: #A80036; stroke-width: 1.0;"/><!--link NavigableSet to TreeSet--><path d="M238.132,507.5399 C241.232,521.2345 244.553,535.8995 247.22,547.6784 " fill="none" id="NavigableSet-TreeSet" style="stroke: #A80036; stroke-width: 1.0; stroke-dasharray: 7.0,7.0;"/><polygon fill="none" points="231.297,509.0525,233.708,488,244.951,505.9609,231.297,509.0525" style="stroke: #A80036; stroke-width: 1.0;"/><!--link SortedSet to NavigableSet--><path d="M207.99,399.057 C212.427,412.889 217.197,427.761 221.019,439.678 " fill="none" id="SortedSet-NavigableSet" style="stroke: #A80036; stroke-width: 1.0;"/><polygon fill="none" points="201.321,401.183,201.877,380,214.652,396.907,201.321,401.183" style="stroke: #A80036; stroke-width: 1.0;"/><!--link HashSet to LinkedHashSet--><path d="M83.467,507.5399 C80.2371,521.2345 76.7784,535.8995 74.0004,547.6784 " fill="none" id="HashSet-LinkedHashSet" style="stroke: #A80036; stroke-width: 1.0;"/><polygon fill="none" points="76.6712,505.8595,88.0754,488,90.2974,509.0732,76.6712,505.8595" style="stroke: #A80036; stroke-width: 1.0;"/><!--link Set to LinkedHashSet--><path d="M152.256,281.133 C111.601,315.243 53.444,373.357 33.5,440 C22.2963,477.437 40.3389,521.4048 54.4098,547.6924 " fill="none" id="Set-LinkedHashSet" style="stroke: #A80036; stroke-width: 1.0; stroke-dasharray: 7.0,7.0;"/><polygon fill="none" points="147.972,275.595,167.918,268.441,156.786,286.472,147.972,275.595" style="stroke: #A80036; stroke-width: 1.0;"/><!--link AbstractSequentialList to LinkedList--><path d="M652.509,500.8693 C633.554,516.3254 611.927,533.9595 595.102,547.6784 " fill="none" id="AbstractSequentialList-LinkedList" style="stroke: #A80036; stroke-width: 1.0;"/><polygon fill="none" points="648.368,495.214,668.292,488,657.215,506.0644,648.368,495.214" style="stroke: #A80036; stroke-width: 1.0;"/><!--link List to LinkedList--><path d="M582.111,285.321 C545.32,320.596 494.113,377.812 472.5,440 C465.497,460.151 463.728,468.553 472.5,488 C483.779,513.0051 506.726,533.5025 527.124,547.8719 " fill="none" id="List-LinkedList" style="stroke: #A80036; stroke-width: 1.0; stroke-dasharray: 7.0,7.0;"/><polygon fill="none" points="577.455,280.091,596.867,271.595,586.99,290.342,577.455,280.091" style="stroke: #A80036; stroke-width: 1.0;"/><!--link AbstractList to AbstractSequentialList--><path d="M693.529,400.024 C694.169,413.579 694.851,428.038 695.4,439.678 " fill="none" id="AbstractList-AbstractSequentialList" style="stroke: #A80036; stroke-width: 1.0;"/><polygon fill="none" points="686.535,400.308,692.585,380,700.52,399.648,686.535,400.308" style="stroke: #A80036; stroke-width: 1.0;"/><!--link Vector to Stack--><path d="M854.5,508.0236 C854.5,521.5792 854.5,536.0381 854.5,547.6784 " fill="none" id="Vector-Stack" style="stroke: #A80036; stroke-width: 1.0;"/><polygon fill="none" points="847.5,508.0005,854.5,488,861.5,508.0004,847.5,508.0005" style="stroke: #A80036; stroke-width: 1.0;"/><!--link AbstractCollection to ArrayDeque--><path d="M792.811,287.126 C820.38,315.878 861.338,354.576 903.5,380 C918.929,389.304 1015.83,423.483 1077.94,444.971 " fill="none" id="AbstractCollection-ArrayDeque" style="stroke: #A80036; stroke-width: 1.0;"/><polygon fill="none" points="787.51,291.707,778.949,272.324,797.729,282.138,787.51,291.707" style="stroke: #A80036; stroke-width: 1.0;"/><!--link Deque to ArrayDeque--><path d="M1126.94,400.024 C1127.7,413.579 1128.52,428.038 1129.18,439.678 " fill="none" id="Deque-ArrayDeque" style="stroke: #A80036; stroke-width: 1.0; stroke-dasharray: 7.0,7.0;"/><polygon fill="none" points="1119.94,400.364,1125.8,380,1133.92,399.573,1119.94,400.364" style="stroke: #A80036; stroke-width: 1.0;"/><!--
@startuml
interface Iterable{
  }

interface Collection{
  }

interface Set{
  }

interface Queue{
  }

interface List{
  }

interface SortedSet{
  }

class HashSet{
  }

abstract AbstractSet{
  }

abstract AbstractCollection{
  }

class ArrayList{
  }

abstract class AbstractList{
  }

class Vector{
  }

interface Deque{
  }

class PriorityQueue{
  }

abstract class AbstractQueue{
  }

class TreeSet{
  }

interface NavigableSet{
  }

class LinkedHashSet{
  }

class LinkedList{
  }

abstract class AbstractSequentialList{
  }

class Stack{
  }

class ArrayDeque{
  }

Iterable <|- - Collection
Collection <|- - Set
Collection <|- - Queue
Collection <|- - List

Set <|- - SortedSet

AbstractSet <|- - HashSet
Set <|.. HashSet

AbstractCollection <|- - AbstractSet
Set <|.. AbstractSet

Collection <|.. AbstractCollection

AbstractList <|- - ArrayList
List <|.. ArrayList

AbstractCollection <|- - AbstractList
List <|.. AbstractList

AbstractList <|- - Vector
List <|.. Vector

Queue <|- - Deque

AbstractQueue <|- - PriorityQueue

AbstractCollection <|- - AbstractQueue
Queue <|.. AbstractQueue

AbstractSet <|- - TreeSet
NavigableSet <|.. TreeSet

SortedSet <|- -  NavigableSet

HashSet <|- - LinkedHashSet
Set <|.. LinkedHashSet

AbstractSequentialList <|- - LinkedList
List <|.. LinkedList

AbstractList <|- - AbstractSequentialList

Vector <|- - Stack

AbstractCollection <|- - ArrayDeque
Deque <|.. ArrayDeque
@enduml

PlantUML version 1.2019.01(Sat Feb 09 15:32:04 UTC 2019)
(GPL source distribution)
Java Runtime: OpenJDK Runtime Environment
JVM: OpenJDK 64-Bit Server VM
Java Version: 1.8.0_181-8u181-b13-2~deb9u1-b13
Operating System: Linux
OS Version: 3.10.0-957.5.1.el7.x86_64
Default Encoding: UTF-8
Language: en
Country: null
--></g></svg>